<?xml version="1.0" encoding="UTF-8" ?>
<!DOCTYPE svg PUBLIC "-//W3C//DTD SVG 1.1//EN" "http://www.w3.org/Graphics/SVG/1.1/DTD/svg11.dtd">
<svg width="128pt" height="27pt" viewBox="0 0 330 76" version="1.1" xmlns="http://www.w3.org/2000/svg">
<g id="#344048ff">
<path fill="#344048" opacity="1.00" d=" M 14.45 8.48 C 27.86 -0.87 46.58 0.02 60.52 7.76 C 58.82 11.36 57.23 15.01 55.60 18.64 C 47.28 13.56 36.63 11.72 27.39 15.32 C 20.02 18.10 14.83 25.28 13.84 33.00 C 13.15 38.48 13.34 44.26 15.56 49.39 C 18.01 55.22 23.12 59.88 29.21 61.67 C 38.03 64.30 47.84 62.53 55.55 57.63 C 57.28 61.25 58.82 64.94 60.53 68.57 C 48.77 75.08 33.94 77.02 21.41 71.56 C 13.00 68.31 6.29 61.31 3.07 52.93 C -2.98 37.82 0.84 18.24 14.45 8.48 Z" />
<path fill="#344048" opacity="1.00" d=" M 74.07 1.73 C 78.20 1.77 82.34 1.76 86.47 1.73 C 86.49 20.82 86.51 39.91 86.45 59.00 C 86.47 60.29 86.67 61.57 86.91 62.84 C 97.99 62.56 109.07 62.81 120.15 62.70 C 120.18 66.67 120.24 70.64 120.12 74.61 C 104.76 74.46 89.39 74.52 74.03 74.58 C 73.94 50.30 73.86 26.01 74.07 1.73 Z" />
<path fill="#344048" opacity="1.00" d=" M 133.66 1.73 C 137.96 1.77 142.25 1.80 146.55 1.66 C 146.93 26.02 146.36 50.39 146.84 74.74 C 142.44 74.75 138.04 74.69 133.64 74.85 C 133.65 50.47 133.62 26.10 133.66 1.73 Z" />
<path fill="#344048" opacity="1.00" d=" M 166.51 16.48 C 171.95 8.29 181.34 3.26 190.99 2.13 C 201.03 0.92 211.57 2.72 220.34 7.85 C 218.64 11.44 217.05 15.08 215.43 18.70 C 207.37 13.67 197.07 11.88 187.99 15.05 C 180.94 17.46 175.53 23.78 174.04 31.06 C 172.34 39.41 173.32 49.03 179.33 55.53 C 184.44 61.35 192.61 63.41 200.11 62.75 C 196.76 66.40 193.59 70.21 190.56 74.13 C 180.53 72.87 170.85 67.18 165.62 58.40 C 158.01 45.79 158.29 28.73 166.51 16.48 Z" />
</g>
<g id="#f35a38ff">
<path fill="#f35a38" opacity="1.00" d=" M 249.76 3.52 C 250.54 2.64 251.43 1.43 252.82 1.80 C 257.96 1.77 263.10 1.80 268.24 1.78 C 257.52 13.82 247.93 26.80 237.49 39.08 C 247.78 50.87 258.03 62.69 268.30 74.51 C 262.58 74.37 256.87 74.36 251.16 74.42 C 241.09 62.59 230.77 50.98 220.74 39.12 C 230.45 27.28 240.10 15.40 249.76 3.52 Z" />
<path fill="#f35a38" opacity="1.00" d=" M 251.25 39.13 C 261.66 26.80 271.58 14.06 281.96 1.71 C 287.62 1.90 293.29 1.77 298.96 1.72 C 288.22 13.77 278.52 26.70 268.17 39.09 C 278.31 50.96 288.78 62.55 298.78 74.55 C 293.16 74.36 287.52 74.41 281.90 74.49 C 271.61 62.77 261.52 50.87 251.25 39.13 Z" />
<path fill="#f35a38" opacity="1.00" d=" M 281.81 39.09 C 292.29 26.79 302.05 13.88 312.65 1.68 C 318.21 1.91 323.78 1.83 329.35 1.67 C 320.54 11.81 312.35 22.46 303.81 32.82 C 302.06 34.99 300.23 37.11 298.73 39.46 C 309.19 50.93 319.28 62.75 329.36 74.56 C 323.76 74.37 318.14 74.35 312.54 74.57 C 302.19 62.84 292.04 50.92 281.81 39.09 Z" />
</g>
</svg>
